<mxfile host="app.diagrams.net" modified="2021-12-01T12:58:35.411Z" agent="5.0 (Windows NT 10.0; Win64; x64) AppleWebKit/537.36 (KHTML, like Gecko) Chrome/96.0.4664.45 Safari/537.36" etag="-9rA5L1mMvxtj0R4t_Kx" version="15.8.8" type="github">
  <diagram id="C5RBs43oDa-KdzZeNtuy" name="Page-1">
    <mxGraphModel dx="1848" dy="464" grid="1" gridSize="10" guides="1" tooltips="1" connect="1" arrows="1" fold="1" page="1" pageScale="1" pageWidth="827" pageHeight="1169" background="#F1FAEE" math="0" shadow="0">
      <root>
        <mxCell id="WIyWlLk6GJQsqaUBKTNV-0" />
        <mxCell id="WIyWlLk6GJQsqaUBKTNV-1" parent="WIyWlLk6GJQsqaUBKTNV-0" />
        <mxCell id="gvof04xV2pnu6pVH0epf-4" value="" style="edgeStyle=orthogonalEdgeStyle;rounded=0;orthogonalLoop=1;jettySize=auto;html=1;labelBackgroundColor=#F1FAEE;strokeColor=#457B9D;fontColor=#1D3557;" edge="1" parent="WIyWlLk6GJQsqaUBKTNV-1" source="WIyWlLk6GJQsqaUBKTNV-3" target="gvof04xV2pnu6pVH0epf-2">
          <mxGeometry relative="1" as="geometry" />
        </mxCell>
        <mxCell id="WIyWlLk6GJQsqaUBKTNV-3" value="&lt;b&gt;Keypad&lt;/b&gt;" style="rounded=1;whiteSpace=wrap;html=1;fontSize=12;glass=0;strokeWidth=1;shadow=0;fillColor=#A8DADC;strokeColor=#457B9D;fontColor=#1D3557;" parent="WIyWlLk6GJQsqaUBKTNV-1" vertex="1">
          <mxGeometry x="40" y="30" width="120" height="40" as="geometry" />
        </mxCell>
        <mxCell id="gvof04xV2pnu6pVH0epf-6" value="" style="edgeStyle=orthogonalEdgeStyle;rounded=0;orthogonalLoop=1;jettySize=auto;html=1;labelBackgroundColor=#F1FAEE;strokeColor=#457B9D;fontColor=#1D3557;" edge="1" parent="WIyWlLk6GJQsqaUBKTNV-1" source="gvof04xV2pnu6pVH0epf-2" target="gvof04xV2pnu6pVH0epf-5">
          <mxGeometry relative="1" as="geometry" />
        </mxCell>
        <mxCell id="gvof04xV2pnu6pVH0epf-2" value="Zero To All Rows" style="rounded=0;whiteSpace=wrap;html=1;fillColor=#A8DADC;strokeColor=#457B9D;fontColor=#1D3557;" vertex="1" parent="WIyWlLk6GJQsqaUBKTNV-1">
          <mxGeometry x="40" y="90" width="120" height="50" as="geometry" />
        </mxCell>
        <mxCell id="gvof04xV2pnu6pVH0epf-8" value="" style="edgeStyle=orthogonalEdgeStyle;rounded=0;orthogonalLoop=1;jettySize=auto;html=1;labelBackgroundColor=#F1FAEE;strokeColor=#457B9D;fontColor=#1D3557;" edge="1" parent="WIyWlLk6GJQsqaUBKTNV-1" source="gvof04xV2pnu6pVH0epf-5" target="gvof04xV2pnu6pVH0epf-7">
          <mxGeometry relative="1" as="geometry" />
        </mxCell>
        <mxCell id="gvof04xV2pnu6pVH0epf-5" value="Read&amp;nbsp;&lt;br&gt;Columns" style="whiteSpace=wrap;html=1;rounded=0;fillColor=#A8DADC;strokeColor=#457B9D;fontColor=#1D3557;" vertex="1" parent="WIyWlLk6GJQsqaUBKTNV-1">
          <mxGeometry x="40" y="170" width="120" height="40" as="geometry" />
        </mxCell>
        <mxCell id="gvof04xV2pnu6pVH0epf-7" value="All Keys&lt;br&gt;open ?" style="rhombus;whiteSpace=wrap;html=1;rounded=0;fillColor=#A8DADC;strokeColor=#457B9D;fontColor=#1D3557;" vertex="1" parent="WIyWlLk6GJQsqaUBKTNV-1">
          <mxGeometry x="60" y="230" width="80" height="80" as="geometry" />
        </mxCell>
        <mxCell id="gvof04xV2pnu6pVH0epf-9" value="" style="endArrow=classic;html=1;rounded=0;labelBackgroundColor=#F1FAEE;strokeColor=#457B9D;fontColor=#1D3557;" edge="1" parent="WIyWlLk6GJQsqaUBKTNV-1" source="gvof04xV2pnu6pVH0epf-7">
          <mxGeometry width="50" height="50" relative="1" as="geometry">
            <mxPoint x="50" y="200" as="sourcePoint" />
            <mxPoint x="100" y="160" as="targetPoint" />
            <Array as="points">
              <mxPoint x="-10" y="270" />
              <mxPoint x="-10" y="160" />
            </Array>
          </mxGeometry>
        </mxCell>
        <mxCell id="gvof04xV2pnu6pVH0epf-13" value="" style="edgeStyle=orthogonalEdgeStyle;rounded=0;orthogonalLoop=1;jettySize=auto;html=1;labelBackgroundColor=#F1FAEE;strokeColor=#457B9D;fontColor=#1D3557;" edge="1" parent="WIyWlLk6GJQsqaUBKTNV-1" source="gvof04xV2pnu6pVH0epf-10" target="gvof04xV2pnu6pVH0epf-12">
          <mxGeometry relative="1" as="geometry" />
        </mxCell>
        <mxCell id="gvof04xV2pnu6pVH0epf-10" value="Read columns&amp;nbsp;" style="whiteSpace=wrap;html=1;rounded=0;fillColor=#A8DADC;strokeColor=#457B9D;fontColor=#1D3557;" vertex="1" parent="WIyWlLk6GJQsqaUBKTNV-1">
          <mxGeometry x="40" y="330" width="120" height="40" as="geometry" />
        </mxCell>
        <mxCell id="gvof04xV2pnu6pVH0epf-12" value="Key&amp;nbsp;&lt;br&gt;Pressed" style="rhombus;whiteSpace=wrap;html=1;rounded=0;fillColor=#A8DADC;strokeColor=#457B9D;fontColor=#1D3557;" vertex="1" parent="WIyWlLk6GJQsqaUBKTNV-1">
          <mxGeometry x="60" y="400" width="80" height="80" as="geometry" />
        </mxCell>
        <mxCell id="gvof04xV2pnu6pVH0epf-14" value="" style="endArrow=classic;html=1;rounded=0;exitX=0;exitY=0.5;exitDx=0;exitDy=0;labelBackgroundColor=#F1FAEE;strokeColor=#457B9D;fontColor=#1D3557;" edge="1" parent="WIyWlLk6GJQsqaUBKTNV-1" source="gvof04xV2pnu6pVH0epf-12">
          <mxGeometry width="50" height="50" relative="1" as="geometry">
            <mxPoint x="50" y="480" as="sourcePoint" />
            <mxPoint x="100" y="320" as="targetPoint" />
            <Array as="points">
              <mxPoint x="-80" y="440" />
              <mxPoint x="-80" y="400" />
              <mxPoint x="-80" y="320" />
            </Array>
          </mxGeometry>
        </mxCell>
        <mxCell id="gvof04xV2pnu6pVH0epf-11" value="" style="edgeStyle=orthogonalEdgeStyle;rounded=0;orthogonalLoop=1;jettySize=auto;html=1;labelBackgroundColor=#F1FAEE;strokeColor=#457B9D;fontColor=#1D3557;" edge="1" parent="WIyWlLk6GJQsqaUBKTNV-1" source="gvof04xV2pnu6pVH0epf-7" target="gvof04xV2pnu6pVH0epf-10">
          <mxGeometry relative="1" as="geometry" />
        </mxCell>
        <mxCell id="gvof04xV2pnu6pVH0epf-16" value="Yes" style="text;html=1;align=center;verticalAlign=middle;resizable=0;points=[];autosize=1;strokeColor=none;fillColor=none;fontColor=#1D3557;" vertex="1" parent="WIyWlLk6GJQsqaUBKTNV-1">
          <mxGeometry x="100" y="300" width="40" height="20" as="geometry" />
        </mxCell>
        <mxCell id="gvof04xV2pnu6pVH0epf-17" value="No" style="text;html=1;align=center;verticalAlign=middle;resizable=0;points=[];autosize=1;strokeColor=none;fillColor=none;fontColor=#1D3557;" vertex="1" parent="WIyWlLk6GJQsqaUBKTNV-1">
          <mxGeometry x="35" y="250" width="30" height="20" as="geometry" />
        </mxCell>
        <mxCell id="gvof04xV2pnu6pVH0epf-18" value="NO" style="text;html=1;align=center;verticalAlign=middle;resizable=0;points=[];autosize=1;strokeColor=none;fillColor=none;fontColor=#1D3557;" vertex="1" parent="WIyWlLk6GJQsqaUBKTNV-1">
          <mxGeometry x="30" y="420" width="30" height="20" as="geometry" />
        </mxCell>
        <mxCell id="gvof04xV2pnu6pVH0epf-21" value="" style="edgeStyle=orthogonalEdgeStyle;rounded=1;orthogonalLoop=1;jettySize=auto;html=1;fontColor=#1D3557;strokeColor=#457B9D;fillColor=#A8DADC;" edge="1" parent="WIyWlLk6GJQsqaUBKTNV-1" source="gvof04xV2pnu6pVH0epf-19" target="gvof04xV2pnu6pVH0epf-20">
          <mxGeometry relative="1" as="geometry" />
        </mxCell>
        <mxCell id="gvof04xV2pnu6pVH0epf-19" value="Wait 20ms" style="rounded=0;whiteSpace=wrap;html=1;fontColor=#1D3557;strokeColor=#457B9D;fillColor=#A8DADC;" vertex="1" parent="WIyWlLk6GJQsqaUBKTNV-1">
          <mxGeometry x="240" y="160" width="120" height="40" as="geometry" />
        </mxCell>
        <mxCell id="gvof04xV2pnu6pVH0epf-23" value="" style="edgeStyle=orthogonalEdgeStyle;rounded=1;orthogonalLoop=1;jettySize=auto;html=1;fontColor=#1D3557;strokeColor=#457B9D;fillColor=#A8DADC;" edge="1" parent="WIyWlLk6GJQsqaUBKTNV-1" source="gvof04xV2pnu6pVH0epf-20" target="gvof04xV2pnu6pVH0epf-22">
          <mxGeometry relative="1" as="geometry" />
        </mxCell>
        <mxCell id="gvof04xV2pnu6pVH0epf-20" value="Read Columns" style="rounded=0;whiteSpace=wrap;html=1;fontColor=#1D3557;strokeColor=#457B9D;fillColor=#A8DADC;" vertex="1" parent="WIyWlLk6GJQsqaUBKTNV-1">
          <mxGeometry x="240" y="230" width="120" height="40" as="geometry" />
        </mxCell>
        <mxCell id="gvof04xV2pnu6pVH0epf-22" value="Key &lt;br&gt;Pressed ?" style="rhombus;whiteSpace=wrap;html=1;rounded=0;fontColor=#1D3557;strokeColor=#457B9D;fillColor=#A8DADC;" vertex="1" parent="WIyWlLk6GJQsqaUBKTNV-1">
          <mxGeometry x="260" y="300" width="80" height="80" as="geometry" />
        </mxCell>
        <mxCell id="gvof04xV2pnu6pVH0epf-26" value="" style="edgeStyle=orthogonalEdgeStyle;rounded=1;orthogonalLoop=1;jettySize=auto;html=1;fontColor=#1D3557;strokeColor=#457B9D;fillColor=#A8DADC;" edge="1" parent="WIyWlLk6GJQsqaUBKTNV-1" source="gvof04xV2pnu6pVH0epf-24" target="gvof04xV2pnu6pVH0epf-25">
          <mxGeometry relative="1" as="geometry" />
        </mxCell>
        <mxCell id="gvof04xV2pnu6pVH0epf-24" value="Output&amp;nbsp; Zero To One row" style="rounded=0;whiteSpace=wrap;html=1;fontColor=#1D3557;strokeColor=#457B9D;fillColor=#A8DADC;" vertex="1" parent="WIyWlLk6GJQsqaUBKTNV-1">
          <mxGeometry x="420" y="80" width="120" height="50" as="geometry" />
        </mxCell>
        <mxCell id="gvof04xV2pnu6pVH0epf-28" value="" style="edgeStyle=orthogonalEdgeStyle;rounded=1;orthogonalLoop=1;jettySize=auto;html=1;fontColor=#1D3557;strokeColor=#457B9D;fillColor=#A8DADC;" edge="1" parent="WIyWlLk6GJQsqaUBKTNV-1" source="gvof04xV2pnu6pVH0epf-25" target="gvof04xV2pnu6pVH0epf-27">
          <mxGeometry relative="1" as="geometry" />
        </mxCell>
        <mxCell id="gvof04xV2pnu6pVH0epf-25" value="Read Columns" style="whiteSpace=wrap;html=1;rounded=0;fontColor=#1D3557;strokeColor=#457B9D;fillColor=#A8DADC;" vertex="1" parent="WIyWlLk6GJQsqaUBKTNV-1">
          <mxGeometry x="420" y="160" width="120" height="60" as="geometry" />
        </mxCell>
        <mxCell id="gvof04xV2pnu6pVH0epf-30" value="" style="edgeStyle=orthogonalEdgeStyle;rounded=1;orthogonalLoop=1;jettySize=auto;html=1;fontColor=#1D3557;strokeColor=#457B9D;fillColor=#A8DADC;" edge="1" parent="WIyWlLk6GJQsqaUBKTNV-1" source="gvof04xV2pnu6pVH0epf-27" target="gvof04xV2pnu6pVH0epf-29">
          <mxGeometry relative="1" as="geometry" />
        </mxCell>
        <mxCell id="gvof04xV2pnu6pVH0epf-27" value="Key Found ?" style="rhombus;whiteSpace=wrap;html=1;rounded=0;fontColor=#1D3557;strokeColor=#457B9D;fillColor=#A8DADC;" vertex="1" parent="WIyWlLk6GJQsqaUBKTNV-1">
          <mxGeometry x="440" y="250" width="80" height="80" as="geometry" />
        </mxCell>
        <mxCell id="gvof04xV2pnu6pVH0epf-32" value="" style="edgeStyle=orthogonalEdgeStyle;rounded=1;orthogonalLoop=1;jettySize=auto;html=1;fontColor=#1D3557;strokeColor=#457B9D;fillColor=#A8DADC;" edge="1" parent="WIyWlLk6GJQsqaUBKTNV-1" source="gvof04xV2pnu6pVH0epf-29" target="gvof04xV2pnu6pVH0epf-31">
          <mxGeometry relative="1" as="geometry" />
        </mxCell>
        <mxCell id="gvof04xV2pnu6pVH0epf-29" value="Convert To Hex" style="whiteSpace=wrap;html=1;rounded=0;fontColor=#1D3557;strokeColor=#457B9D;fillColor=#A8DADC;" vertex="1" parent="WIyWlLk6GJQsqaUBKTNV-1">
          <mxGeometry x="420" y="350" width="120" height="60" as="geometry" />
        </mxCell>
        <mxCell id="gvof04xV2pnu6pVH0epf-31" value="Return" style="ellipse;whiteSpace=wrap;html=1;rounded=0;fontColor=#1D3557;strokeColor=#457B9D;fillColor=#A8DADC;" vertex="1" parent="WIyWlLk6GJQsqaUBKTNV-1">
          <mxGeometry x="420" y="440" width="120" height="40" as="geometry" />
        </mxCell>
        <mxCell id="gvof04xV2pnu6pVH0epf-33" value="" style="endArrow=classic;html=1;rounded=1;fontColor=#1D3557;strokeColor=#457B9D;fillColor=#A8DADC;exitX=0;exitY=0.5;exitDx=0;exitDy=0;" edge="1" parent="WIyWlLk6GJQsqaUBKTNV-1" source="gvof04xV2pnu6pVH0epf-22">
          <mxGeometry width="50" height="50" relative="1" as="geometry">
            <mxPoint x="210" y="330" as="sourcePoint" />
            <mxPoint x="100" y="150" as="targetPoint" />
            <Array as="points">
              <mxPoint x="190" y="340" />
              <mxPoint x="190" y="500" />
              <mxPoint x="150" y="500" />
              <mxPoint x="-90" y="500" />
              <mxPoint x="-90" y="150" />
            </Array>
          </mxGeometry>
        </mxCell>
        <mxCell id="gvof04xV2pnu6pVH0epf-34" value="No" style="text;html=1;align=center;verticalAlign=middle;resizable=0;points=[];autosize=1;strokeColor=none;fillColor=none;fontColor=#1D3557;" vertex="1" parent="WIyWlLk6GJQsqaUBKTNV-1">
          <mxGeometry x="235" y="320" width="30" height="20" as="geometry" />
        </mxCell>
        <mxCell id="gvof04xV2pnu6pVH0epf-35" value="" style="endArrow=classic;html=1;rounded=1;fontColor=#1D3557;strokeColor=#457B9D;fillColor=#A8DADC;exitX=0.5;exitY=1;exitDx=0;exitDy=0;" edge="1" parent="WIyWlLk6GJQsqaUBKTNV-1" source="gvof04xV2pnu6pVH0epf-12">
          <mxGeometry width="50" height="50" relative="1" as="geometry">
            <mxPoint x="60" y="560" as="sourcePoint" />
            <mxPoint x="300" y="150" as="targetPoint" />
            <Array as="points">
              <mxPoint x="150" y="480" />
              <mxPoint x="170" y="480" />
              <mxPoint x="200" y="80" />
              <mxPoint x="300" y="80" />
            </Array>
          </mxGeometry>
        </mxCell>
        <mxCell id="gvof04xV2pnu6pVH0epf-36" value="Yes" style="text;html=1;align=center;verticalAlign=middle;resizable=0;points=[];autosize=1;strokeColor=none;fillColor=none;fontColor=#1D3557;" vertex="1" parent="WIyWlLk6GJQsqaUBKTNV-1">
          <mxGeometry x="120" y="460" width="40" height="20" as="geometry" />
        </mxCell>
        <mxCell id="gvof04xV2pnu6pVH0epf-37" value="" style="endArrow=classic;html=1;rounded=1;fontColor=#1D3557;strokeColor=#457B9D;fillColor=#A8DADC;exitX=0.5;exitY=1;exitDx=0;exitDy=0;" edge="1" parent="WIyWlLk6GJQsqaUBKTNV-1" source="gvof04xV2pnu6pVH0epf-22">
          <mxGeometry width="50" height="50" relative="1" as="geometry">
            <mxPoint x="60" y="290" as="sourcePoint" />
            <mxPoint x="480" y="70" as="targetPoint" />
            <Array as="points">
              <mxPoint x="300" y="430" />
              <mxPoint x="380" y="430" />
              <mxPoint x="380" y="20" />
              <mxPoint x="480" y="20" />
            </Array>
          </mxGeometry>
        </mxCell>
        <mxCell id="gvof04xV2pnu6pVH0epf-38" value="Yes" style="text;html=1;align=center;verticalAlign=middle;resizable=0;points=[];autosize=1;strokeColor=none;fillColor=none;fontColor=#1D3557;" vertex="1" parent="WIyWlLk6GJQsqaUBKTNV-1">
          <mxGeometry x="300" y="400" width="40" height="20" as="geometry" />
        </mxCell>
        <mxCell id="gvof04xV2pnu6pVH0epf-39" value="" style="endArrow=classic;html=1;rounded=1;fontColor=#1D3557;strokeColor=#457B9D;fillColor=#A8DADC;exitX=0;exitY=0.5;exitDx=0;exitDy=0;" edge="1" parent="WIyWlLk6GJQsqaUBKTNV-1" source="gvof04xV2pnu6pVH0epf-27">
          <mxGeometry width="50" height="50" relative="1" as="geometry">
            <mxPoint x="420" y="330" as="sourcePoint" />
            <mxPoint x="470" y="40" as="targetPoint" />
            <Array as="points">
              <mxPoint x="400" y="290" />
              <mxPoint x="400" y="260" />
              <mxPoint x="400" y="150" />
              <mxPoint x="400" y="40" />
            </Array>
          </mxGeometry>
        </mxCell>
        <mxCell id="gvof04xV2pnu6pVH0epf-40" value="No" style="text;html=1;align=center;verticalAlign=middle;resizable=0;points=[];autosize=1;strokeColor=none;fillColor=none;fontColor=#1D3557;" vertex="1" parent="WIyWlLk6GJQsqaUBKTNV-1">
          <mxGeometry x="415" y="290" width="30" height="20" as="geometry" />
        </mxCell>
        <mxCell id="gvof04xV2pnu6pVH0epf-41" value="Yes" style="text;html=1;align=center;verticalAlign=middle;resizable=0;points=[];autosize=1;strokeColor=none;fillColor=none;fontColor=#1D3557;" vertex="1" parent="WIyWlLk6GJQsqaUBKTNV-1">
          <mxGeometry x="490" y="320" width="40" height="20" as="geometry" />
        </mxCell>
        <mxCell id="gvof04xV2pnu6pVH0epf-42" value="Flow Chart&lt;br&gt;" style="text;html=1;align=center;verticalAlign=middle;resizable=0;points=[];autosize=1;strokeColor=none;fillColor=none;fontColor=#1D3557;" vertex="1" parent="WIyWlLk6GJQsqaUBKTNV-1">
          <mxGeometry x="235" y="520" width="70" height="20" as="geometry" />
        </mxCell>
      </root>
    </mxGraphModel>
  </diagram>
</mxfile>
